<svg xmlns="http://www.w3.org/2000/svg" width="720" height="420" viewBox="0 0 720 420">
  <rect width="720" height="420" fill="#0f172a"/>
  <text x="34" y="44" fill="#f97316" font-family="Inter, Arial, sans-serif" font-size="13" font-weight="800" letter-spacing="1">OPTION 2</text>
  <text x="34" y="72" fill="#e5e7eb" font-family="Inter, Arial, sans-serif" font-size="24" font-weight="800">Field Note Tiles</text>
  <text x="34" y="98" fill="#94a3b8" font-family="Inter, Arial, sans-serif" font-size="14">Keeps the grid, but makes each focus feel more tactical and less empty.</text>

  <g transform="translate(34 130)">
    <rect width="204" height="236" rx="8" fill="#1f2937" stroke="#334155"/>
    <rect x="18" y="18" width="168" height="82" rx="7" fill="#111827" stroke="#334155"/>
    <line x1="102" y1="18" x2="102" y2="100" stroke="#334155" stroke-dasharray="4 4"/>
    <circle cx="102" cy="59" r="20" fill="none" stroke="#334155" stroke-dasharray="4 4"/>
    <path d="M46 75 C76 40 116 42 154 28" fill="none" stroke="#f97316" stroke-width="3" stroke-linecap="round"/>
    <circle cx="46" cy="75" r="5" fill="#38bdf8"/>
    <circle cx="154" cy="28" r="5" fill="#f97316"/>
    <text x="18" y="137" fill="#e5e7eb" font-family="Inter, Arial, sans-serif" font-size="20" font-weight="800">Cutting</text>
    <text x="18" y="164" fill="#94a3b8" font-family="Inter, Arial, sans-serif" font-size="13">Explosive changes of</text>
    <text x="18" y="183" fill="#94a3b8" font-family="Inter, Arial, sans-serif" font-size="13">direction and timing.</text>
    <rect x="18" y="204" width="74" height="24" rx="12" fill="#2b3648"/>
    <text x="55" y="221" fill="#cbd5e1" text-anchor="middle" font-family="Inter, Arial, sans-serif" font-size="11" font-weight="800">120 min</text>
  </g>
  <g transform="translate(258 130)">
    <rect width="204" height="236" rx="8" fill="#1f2937" stroke="#334155"/>
    <rect x="18" y="18" width="168" height="82" rx="7" fill="#111827" stroke="#334155"/>
    <rect x="28" y="28" width="34" height="62" fill="none" stroke="#475569"/>
    <rect x="142" y="28" width="34" height="62" fill="none" stroke="#475569"/>
    <circle cx="76" cy="45" r="5" fill="#38bdf8"/><circle cx="96" cy="59" r="5" fill="#38bdf8"/><circle cx="118" cy="74" r="5" fill="#38bdf8"/>
    <circle cx="88" cy="78" r="5" fill="#f97316"/><circle cx="132" cy="49" r="5" fill="#f97316"/>
    <text x="18" y="137" fill="#e5e7eb" font-family="Inter, Arial, sans-serif" font-size="20" font-weight="800">Zone Defense</text>
    <text x="18" y="164" fill="#94a3b8" font-family="Inter, Arial, sans-serif" font-size="13">Shape, communication,</text>
    <text x="18" y="183" fill="#94a3b8" font-family="Inter, Arial, sans-serif" font-size="13">and sideline traps.</text>
    <rect x="18" y="204" width="84" height="24" rx="12" fill="#2b3648"/>
    <text x="60" y="221" fill="#cbd5e1" text-anchor="middle" font-family="Inter, Arial, sans-serif" font-size="11" font-weight="800">Defense</text>
  </g>
  <g transform="translate(482 130)">
    <rect width="204" height="236" rx="8" fill="#1f2937" stroke="#334155"/>
    <rect x="18" y="18" width="168" height="82" rx="7" fill="#111827" stroke="#334155"/>
    <path d="M42 65 C80 26 118 92 162 42" fill="none" stroke="#a78bfa" stroke-width="3" stroke-linecap="round"/>
    <circle cx="42" cy="65" r="5" fill="#38bdf8"/><circle cx="88" cy="44" r="5" fill="#f97316"/><circle cx="162" cy="42" r="5" fill="#38bdf8"/>
    <text x="18" y="137" fill="#e5e7eb" font-family="Inter, Arial, sans-serif" font-size="20" font-weight="800">Handler Movement</text>
    <text x="18" y="164" fill="#94a3b8" font-family="Inter, Arial, sans-serif" font-size="13">Resets, weaves, and</text>
    <text x="18" y="183" fill="#94a3b8" font-family="Inter, Arial, sans-serif" font-size="13">dump-swing flow.</text>
    <rect x="18" y="204" width="76" height="24" rx="12" fill="#2b3648"/>
    <text x="56" y="221" fill="#cbd5e1" text-anchor="middle" font-family="Inter, Arial, sans-serif" font-size="11" font-weight="800">Offense</text>
  </g>
</svg>
